<svg width="2069" height="2069" viewBox="0 0 2069 2069" fill="none" xmlns="http://www.w3.org/2000/svg">
<path d="M288.865 280.869C366.535 233.114 447.672 194.608 530.799 160.038C572.266 142.326 614.504 127.107 657.126 111.954C699.749 97.0636 743.014 84.0753 786.663 71.3493C830.377 59.1481 874.733 48.6524 919.538 38.6815C942.005 33.6961 964.6 29.6947 987.387 25.7588C998.749 23.7253 1010.24 22.0197 1021.67 20.1829C1033.09 18.3462 1044.65 16.6407 1056.2 15.0663C1102.42 8.30975 1149.28 4.30828 1197.03 1.94676C1244.79 -0.283569 1293.45 -1.13631 1342.94 2.34038C1392.49 5.42348 1443.01 11.1305 1494.81 20.9701C1507.85 23.5941 1520.81 26.6115 1533.78 29.5634L1573.13 40.1247C1586.29 43.995 1599.57 48.4557 1612.8 52.7195C1626.08 57.1802 1639.44 62.6247 1652.66 67.7414C1705.81 89.5199 1759.92 117.989 1811.08 156.626C1823.79 166.532 1836.37 176.831 1848.83 187.195C1860.96 198.412 1873.22 209.564 1884.9 221.437C1896.26 233.835 1907.75 246.102 1918.54 259.221C1928.94 272.669 1939.78 285.854 1949.35 300.023C1988.7 356.109 2017.65 419.477 2036.84 482.516C2041.21 498.194 2045.89 514.135 2049.49 529.878C2052.7 545.556 2055.71 561.234 2058.6 576.977C2060.85 592.458 2062.71 607.808 2064.57 623.289C2065.66 631.096 2066.11 638.574 2066.56 646.117L2067.97 668.749C2068.36 676.227 2069 683.967 2069 691.314V713.355C2068.74 727.984 2069 743.005 2067.97 757.043L2065.28 799.813C2063.93 813.457 2062.39 826.708 2060.85 840.221L2058.22 861.082L2056.03 874.66L2055.01 880.892L2053.98 886.402C2051.28 901.424 2048.33 914.741 2045.38 928.516C2039.22 955.149 2032.67 981.06 2025.22 1006.32C2010.33 1056.83 1992.93 1105.5 1973.36 1153.12L1958.27 1188.61L1942.03 1223.51C1936.64 1235.19 1931.18 1246.73 1925.21 1258.08C1919.44 1269.49 1913.47 1280.84 1907.5 1292.13C1859.16 1382.26 1801.71 1467.21 1736.49 1545.07L1686.17 1602.14C1668.71 1620.44 1650.61 1638.22 1632.89 1656.13C1624.16 1665.25 1614.66 1673.58 1605.35 1682.04L1577.17 1707.16C1558.68 1724.22 1538.66 1739.44 1519.14 1755.05L1489.62 1778.14C1479.6 1785.55 1469.2 1792.44 1459 1799.59L1428.31 1820.78L1412.97 1831.27C1407.9 1834.82 1402.38 1837.7 1397.12 1840.92L1333.31 1878.5C1328.05 1881.72 1322.59 1884.54 1317.13 1887.29L1300.77 1895.69L1268.09 1912.42C1257.18 1917.93 1246.4 1923.64 1235.42 1928.88C1224.32 1933.8 1213.02 1938.33 1201.85 1943.05L1168.28 1957.02L1151.52 1963.98C1146 1966.34 1140.35 1968.57 1134.64 1970.47C1089.07 1986.02 1044.39 2003.34 997.915 2013.9C974.87 2019.74 952.083 2026.16 929.102 2031.35C905.994 2036 882.949 2040.66 859.841 2044.6L825.306 2050.7C813.752 2052.34 802.133 2053.58 790.579 2054.96C767.47 2057.59 744.554 2060.67 721.51 2062.77L704.242 2064.41L686.911 2065.2L652.376 2066.64C629.396 2067.56 606.608 2068.74 583.756 2069L515.265 2066.9C492.542 2066.18 469.882 2065.2 447.351 2063.42C402.161 2058.9 357.292 2053.65 312.872 2047.16C268.388 2038.56 224.353 2030.03 180.767 2019.01L180.254 1992.32L308.828 1984.84C351.515 1980.84 394.137 1975.72 436.76 1971.26C479.126 1964.96 521.427 1957.75 563.665 1950.86L626.379 1937.15L657.704 1930.33L673.367 1926.92L688.837 1922.65L750.716 1905.73C760.987 1902.84 771.386 1900.22 781.592 1897.2L812.019 1887.03L872.807 1866.7C892.899 1859.35 912.541 1850.95 932.376 1843.15C972.495 1828.32 1010.43 1808.51 1049.2 1790.6C1054.08 1788.44 1058.83 1785.95 1063.45 1783.32L1077.51 1775.65L1105.63 1760.23L1133.74 1744.88C1142.92 1739.44 1151.84 1733.6 1160.96 1727.96L1188.11 1710.9L1201.66 1702.37C1206.21 1699.55 1210.71 1696.73 1215.01 1693.52L1267.19 1656.32C1276.05 1650.35 1284.27 1643.53 1292.68 1636.84L1317.78 1616.83C1326.06 1610.08 1334.59 1603.65 1342.75 1596.7L1366.69 1575.31C1430.62 1518.5 1489.62 1455.86 1542.06 1387.83C1646.82 1251.85 1726.67 1095.46 1775.33 930.156C1787.2 888.895 1798.24 846.912 1803.19 805.455L1807.23 773.508L1809.61 741.628C1810.7 731.001 1810.44 720.374 1810.76 709.747L1811.08 693.807C1811.21 688.494 1810.76 683.246 1810.57 677.932C1808.84 593.442 1787.52 509.936 1742.65 440.993C1720.32 406.554 1692.52 375.789 1660.56 349.878C1628.65 323.835 1592.96 302.254 1555.28 284.477C1479.79 248.988 1397.18 228.194 1313.54 215.402C1229.71 202.742 1144.33 198.347 1058.96 199.134C973.522 199.79 888.02 205.694 802.775 214.943C717.466 223.799 632.413 236.197 547.81 251.481C463.335 266.831 378.796 284.673 295.99 306.517L288.865 280.869Z" fill="url(#paint0_linear_96_2063)"/>
<path d="M356.163 363.473C366.759 360.718 376.649 356.717 385.961 351.668C395.273 346.552 403.429 343.535 410.429 342.486C410.557 342.486 410.621 342.486 410.75 342.486C424.493 340.518 435.86 354.291 432.906 368.654L181.227 1594.08C182.19 1593.95 165.686 1643.4 234.337 1637.23C262.915 1634.68 301.576 1626.81 335.355 1617.82C369.135 1608.84 412.355 1598.8 464.951 1587.72C514.016 1577.36 574.768 1566.8 647.144 1556.04C656.327 1554.66 665.318 1560.24 668.85 1569.42C678.162 1593.69 673.025 1574.08 678.483 1591.19C683.878 1608.05 688.823 1630.94 693.318 1659.73C694.795 1669.37 690.043 1678.94 681.63 1682.75C663.263 1691.21 642.135 1699.73 618.309 1708.39C588.126 1719.34 549.85 1731.35 503.483 1744.33C457.117 1757.32 414.603 1767.88 375.878 1776.01C337.153 1784.14 299.392 1790.9 262.465 1796.27C176.539 1808.8 105.19 1813 48.4841 1808.8C41.2914 1808.28 34.8052 1803.75 31.4657 1796.86C22.9245 1779.09 14.897 1766.63 7.25479 1759.61C2.24562 1754.96 -0.451642 1748.27 0.0621192 1741.25C2.5667 1708.72 14.319 1625.04 35.3189 1490.13C60.3006 1329.45 91.2546 1159.46 128.245 980.153C165.172 800.848 205.374 642.923 248.722 506.379C254.438 489.327 259.768 472.669 264.649 456.404C268.887 442.369 273.768 425.842 279.484 406.889C281.153 401.249 284.878 396.527 289.823 393.969C294.897 391.346 300.034 388.525 305.172 385.509C312.878 380.983 321.355 376.786 330.603 372.917C339.851 369.113 348.328 365.965 356.163 363.604V363.473Z" fill="url(#paint1_linear_96_2063)"/>
<path d="M1205.03 615.29L1209.92 619.23C1211.53 617.523 1214.49 615.093 1218.8 612.072C1223.11 609.052 1228.25 606.819 1234.23 605.44C1248.19 604.193 1261.95 614.174 1275.46 635.252C1288.96 656.33 1298.67 680.1 1304.53 706.497C1308.45 724.227 1309.67 739.658 1308.19 752.922C1306.65 766.186 1302.15 775.182 1294.56 779.975C1285.75 782.011 1275.46 780.698 1263.82 775.97C1252.11 771.242 1240.73 761.983 1229.47 748.128C1218.28 734.339 1209.34 717.003 1202.72 696.188C1197.51 704.199 1191.72 713.064 1185.29 722.848C1178.86 732.632 1171.72 745.764 1163.94 762.115C1156.16 778.465 1149.66 795.209 1144.52 812.348C1139.37 829.486 1134.87 851.549 1130.88 878.537L1226.96 847.543L1247.93 863.5L1268.58 873.415L1272.63 900.403C1271.66 900.6 1217.96 926.669 1111.39 978.543C1112.36 978.346 1092.1 1065.15 1050.62 1239.1C1045.8 1260.57 1040.01 1286.11 1033.38 1315.79C1026.76 1345.47 1020.78 1371.8 1015.44 1394.92C1010.17 1417.97 1006.24 1435.24 1003.86 1446.66C995.824 1447.84 989.007 1446.92 983.348 1443.84C977.688 1440.75 971.9 1436.29 965.919 1430.38C959.938 1424.47 955.629 1420.86 952.992 1419.41C951.448 1418.43 942.702 1416.65 926.688 1414.09C910.674 1411.53 901.67 1407.99 899.676 1403.39C904.564 1382.25 909.452 1361.23 914.211 1340.29C918.97 1319.34 923.858 1298.33 928.746 1277.18L925.402 1291.17C925.209 1293.27 925.08 1294.45 924.951 1294.85C924.887 1295.24 924.694 1295.57 924.437 1295.96C925.98 1295.57 935.37 1262.15 952.542 1195.69C969.713 1129.18 983.991 1073.82 995.31 1029.5C988.493 1031.73 976.723 1039.15 959.938 1051.69C943.152 1064.23 929.389 1071.72 918.713 1074.22C905.85 1061.28 898.519 1050.64 896.654 1042.24C894.789 1036.92 891.058 1033.64 885.528 1032.39C879.932 1031.14 874.852 1029.56 870.285 1027.53C865.719 1025.56 862.311 1020.44 860.124 1012.1C895.432 985.963 927.074 965.607 954.986 951.161C982.962 936.715 1003.16 926.866 1015.57 921.547C1020.46 886.876 1031 845.377 1047.27 797.048C1063.55 748.719 1082.58 706.038 1104.51 668.872C1126.44 631.772 1147.92 610.759 1169.08 605.834C1182.01 602.814 1193.97 605.966 1205.03 615.29Z" fill="url(#paint2_linear_96_2063)"/>
<path d="M1196.23 1333.39C1181.24 1318.24 1170.55 1296.54 1164.25 1268.27C1156.07 1231.61 1155.82 1189.76 1163.6 1142.8C1171.39 1095.84 1186.84 1049.67 1210.07 1004.35C1233.3 959.034 1264.77 919.027 1304.48 884.267C1344.19 849.507 1390.4 826.028 1443.11 813.763C1473.55 808.713 1500.06 814.55 1522.72 831.275C1545.37 847.999 1559.92 870.625 1566.29 899.221C1571.31 921.716 1570.21 944.409 1563.07 967.364C1550.52 1003.37 1525.1 1037.34 1486.74 1069.22C1462.09 1092.5 1428.5 1116.77 1385.96 1142.02C1343.48 1167.27 1302.87 1185.57 1264.26 1196.91C1263.23 1219.08 1263.42 1233.25 1264.77 1239.34C1268.38 1255.41 1279.77 1265.58 1299.01 1269.91C1307.31 1271.35 1318.7 1270.43 1333.25 1267.02C1366.07 1259.41 1398.83 1241.71 1431.46 1213.9C1464.09 1186.09 1486.1 1152.38 1497.49 1112.7C1500.84 1114.27 1504.57 1124.24 1508.62 1142.61C1509.65 1144.38 1514.48 1147.59 1522.98 1152.25C1531.47 1156.84 1536.04 1160.45 1536.62 1163.07C1535.14 1192.19 1524.2 1220.85 1503.8 1249.12C1483.4 1277.38 1457.07 1302.24 1424.89 1323.75C1392.65 1345.26 1360.47 1359.76 1328.29 1367.24C1268.31 1381.14 1224.29 1369.86 1196.23 1333.46V1333.39ZM1536.81 916.732C1528.64 909.845 1515.7 908.468 1498 912.534C1486.36 915.223 1473.36 920.995 1459 929.718C1428.95 949.852 1404.3 972.348 1384.93 997.139C1365.56 1021.93 1349.53 1052.56 1336.72 1089.02C1346.7 1084.7 1366.65 1074.73 1396.51 1059.18C1426.37 1043.64 1448.13 1031.9 1461.64 1024.03C1489.9 1004.94 1511.33 986.842 1525.94 969.79C1540.54 952.672 1546.59 938.703 1544.15 927.75C1543.44 924.536 1540.93 920.864 1536.75 916.797L1536.81 916.732Z" fill="url(#paint3_linear_96_2063)"/>
<path fill-rule="evenodd" clip-rule="evenodd" d="M675.111 862.422C710.433 862.422 737.728 833.682 736.058 798.251C734.388 762.819 704.461 734.146 669.139 734.146C633.817 734.146 606.587 762.885 608.193 798.316C609.862 833.748 639.79 862.422 675.111 862.422Z" fill="url(#paint4_linear_96_2063)"/>
<path fill-rule="evenodd" clip-rule="evenodd" d="M760.911 951.001C852.17 930.07 952.934 872.592 1020.43 805.075C800.022 900.609 561.118 925.477 319.837 803.762L589.697 986.695V986.826C589.697 986.826 589.825 986.826 589.889 987.023C618.789 1167.4 601.642 1391.14 581.541 1509.18C627.266 1374.61 669.974 1271.39 686.543 1206.9C709.534 1295.48 742.287 1398.1 755.774 1517.32C770.224 1424.41 763.031 1251.19 760.526 1102.83H760.462L760.077 1056.51C760.012 1017.6 760.205 971.472 761.04 951.001H760.911Z" fill="url(#paint5_linear_96_2063)"/>
<path d="M802.72 957.036C802.72 956.446 802.72 955.855 802.656 955.265C801.05 931.709 780.242 912.747 756.288 914.453C738.755 915.699 724.498 928.297 718.589 943.454C710.754 929.282 694.892 918.783 677.359 920.03C653.405 921.736 635.358 943.52 636.964 967.01C636.964 967.6 637.092 968.191 637.156 968.781C637.156 968.781 636.578 996.93 669.139 1025.28C683.974 1038.46 700.351 1050.8 727.259 1070.16C751.278 1047.19 765.857 1032.62 778.765 1017.47C807.151 984.791 802.784 957.036 802.784 957.036H802.72Z" fill="#FF0000"/>
<path d="M1385.66 461.915C1387.59 437.441 1392.02 380.947 1394.39 350.043L1414.62 352.077C1412.05 383.113 1407.37 440.263 1405.38 464.605L1385.6 461.85L1385.66 461.915Z" fill="url(#paint6_linear_96_2063)"/>
<path d="M1394.52 348.928L1414.75 350.962C1415.33 350.962 1415.78 351.552 1415.71 352.143L1406.47 464.671C1406.47 464.671 1406.27 465.262 1406.08 465.459C1405.82 465.655 1405.57 465.721 1405.25 465.721L1385.47 462.965C1384.89 462.9 1384.5 462.375 1384.5 461.784L1393.24 349.912C1393.24 349.912 1393.43 349.321 1393.62 349.125C1393.75 348.993 1393.94 348.928 1394.14 348.862C1394.2 348.862 1394.33 348.862 1394.39 348.862L1394.52 348.928ZM1404.41 463.359L1413.47 353.127L1395.36 351.29L1386.82 460.931L1404.41 463.359Z" fill="#007B9C"/>
<path d="M1365.88 459.158C1367.68 434.553 1371.85 378.715 1374.16 348.008L1394.39 350.042C1391.95 380.88 1387.59 437.44 1385.66 461.914L1365.88 459.158Z" fill="url(#paint7_linear_96_2063)"/>
<path d="M1374.29 346.891L1394.52 348.925C1395.1 348.925 1395.55 349.515 1395.49 350.106L1386.75 461.978C1386.75 461.978 1386.56 462.569 1386.37 462.766C1386.11 462.962 1385.85 463.028 1385.53 463.028L1365.75 460.272C1365.17 460.207 1364.79 459.682 1364.79 459.091L1373.07 347.941C1373.07 347.941 1373.26 347.35 1373.46 347.153C1373.59 347.022 1373.78 346.956 1373.97 346.891C1374.03 346.891 1374.16 346.891 1374.23 346.891H1374.29ZM1384.7 460.666L1393.24 351.09L1375.13 349.253L1367.03 458.238L1384.63 460.666H1384.7Z" fill="#007B9C"/>
<path d="M1346.16 456.402C1347.9 431.731 1351.75 376.483 1353.93 345.907L1374.16 347.941C1371.85 378.649 1367.74 434.552 1365.88 459.092L1346.1 456.336L1346.16 456.402Z" fill="url(#paint8_linear_96_2063)"/>
<path d="M1354 344.857L1374.23 346.891C1374.81 346.891 1375.26 347.482 1375.19 348.072L1366.91 459.223C1366.91 459.223 1366.71 459.813 1366.52 460.01C1366.26 460.207 1366.01 460.273 1365.69 460.273L1345.91 457.517C1345.33 457.451 1344.94 456.926 1344.94 456.336C1346.55 433.699 1349.95 385.275 1352.14 353.781L1352.71 345.841C1352.71 345.841 1352.84 345.251 1353.1 345.054C1353.23 344.923 1353.42 344.857 1353.61 344.792C1353.68 344.792 1353.81 344.792 1353.87 344.792L1354 344.857ZM1364.92 457.91L1373.01 348.991L1354.96 347.154L1354.45 353.978C1352.26 384.947 1348.92 432.386 1347.32 455.483L1364.92 457.91Z" fill="#007B9C"/>
<path d="M1326.38 453.711C1328.05 428.909 1331.65 374.318 1333.7 343.873L1353.93 345.907C1351.81 376.483 1347.9 431.73 1346.16 456.401L1326.38 453.646V453.711Z" fill="url(#paint9_linear_96_2063)"/>
<path d="M1333.77 342.758L1354 344.792C1354.58 344.792 1355.03 345.382 1354.96 345.973L1354.38 353.978C1352.2 385.407 1348.8 433.83 1347.19 456.467C1347.19 456.795 1347 457.058 1346.81 457.255C1346.55 457.451 1346.29 457.517 1345.97 457.517L1326.19 454.761C1325.61 454.696 1325.23 454.171 1325.23 453.58C1326.9 428.778 1330.49 374.187 1332.55 343.742C1332.55 343.414 1332.68 343.151 1332.93 342.955C1333.06 342.823 1333.25 342.758 1333.45 342.692C1333.51 342.692 1333.64 342.692 1333.7 342.692L1333.77 342.758ZM1345.14 455.155C1346.74 432.059 1350.08 384.751 1352.26 353.847L1352.78 346.891L1334.73 345.054C1332.74 375.237 1329.21 427.794 1327.6 452.727L1345.2 455.155H1345.14Z" fill="#007B9C"/>
<path d="M1306.6 450.955C1308.14 426.087 1311.55 372.087 1313.41 341.839L1333.64 343.873C1331.65 374.252 1327.99 428.909 1326.32 453.711L1306.54 450.955H1306.6Z" fill="url(#paint10_linear_96_2063)"/>
<path d="M1313.54 340.723L1333.77 342.757C1334.35 342.757 1334.8 343.348 1334.73 343.938C1332.68 374.383 1329.08 428.974 1327.41 453.777C1327.41 454.105 1327.22 454.367 1327.02 454.564C1326.77 454.761 1326.51 454.826 1326.19 454.826L1306.41 452.071C1305.83 452.005 1305.45 451.48 1305.45 450.89L1312.25 341.708C1312.25 341.708 1312.38 341.117 1312.64 340.92C1312.77 340.789 1312.96 340.723 1313.15 340.658C1313.22 340.658 1313.35 340.658 1313.41 340.658L1313.54 340.723ZM1325.36 452.464C1327.02 427.465 1330.49 375.04 1332.48 344.923L1314.44 343.085L1307.76 450.037L1325.36 452.464Z" fill="#007B9C"/>
<path d="M1291 448.791L1295.11 339.938L1313.41 341.775C1311.55 372.023 1308.14 426.023 1306.6 450.891L1291 448.726V448.791Z" fill="url(#paint11_linear_96_2063)"/>
<path d="M1295.24 338.823L1313.54 340.66C1314.12 340.66 1314.57 341.25 1314.5 341.841L1307.69 451.023C1307.69 451.023 1307.5 451.614 1307.31 451.81C1307.05 452.007 1306.8 452.073 1306.47 452.073L1290.87 449.908C1290.29 449.842 1289.9 449.317 1289.9 448.792L1294.01 339.938C1294.01 339.938 1294.14 339.348 1294.4 339.151C1294.53 339.02 1294.72 338.954 1294.98 338.888C1295.04 338.888 1295.17 338.888 1295.24 338.888V338.823ZM1305.64 449.711L1312.32 342.825L1296.2 341.185L1292.15 447.874L1305.64 449.711Z" fill="#007B9C"/>
<path d="M1425.16 467.36C1427.21 443.149 1432.22 385.343 1434.85 354.176L1455.08 356.21C1452.26 387.508 1446.99 446.036 1444.87 470.05L1425.09 467.295L1425.16 467.36Z" fill="url(#paint12_linear_96_2063)"/>
<path d="M1435.05 353.06L1455.28 355.094C1455.85 355.094 1456.3 355.685 1456.24 356.275L1446.03 470.116C1446.03 470.116 1445.83 470.706 1445.64 470.903C1445.39 471.1 1445.13 471.166 1444.81 471.1L1425.09 468.344C1424.51 468.278 1424.13 467.754 1424.13 467.163L1433.83 353.979C1433.83 353.979 1434.02 353.388 1434.21 353.191C1434.34 353.06 1434.53 352.994 1434.72 352.929C1434.79 352.929 1434.92 352.929 1434.98 352.929L1435.05 353.06ZM1443.97 468.803L1453.99 357.194L1435.88 355.356L1426.38 466.376L1443.97 468.803Z" fill="#007B9C"/>
<path d="M1405.44 464.605C1407.43 440.262 1412.12 383.112 1414.69 352.076L1434.92 354.11C1432.22 385.277 1427.27 443.083 1425.22 467.295L1405.44 464.539V464.605Z" fill="url(#paint13_linear_96_2063)"/>
<path d="M1414.75 351.027L1434.98 353.061C1435.56 353.061 1436.01 353.652 1435.94 354.242L1426.25 467.427C1426.25 467.427 1426.05 468.017 1425.86 468.214C1425.61 468.411 1425.35 468.477 1425.03 468.477L1405.25 465.721C1404.67 465.655 1404.28 465.13 1404.28 464.54L1413.53 352.011C1413.53 352.011 1413.72 351.421 1413.92 351.224C1414.05 351.093 1414.24 351.027 1414.43 350.962C1414.49 350.962 1414.62 350.962 1414.69 350.962L1414.75 351.027ZM1424.19 466.115L1433.7 355.161L1415.59 353.324L1406.53 463.687L1424.13 466.115H1424.19Z" fill="#007B9C"/>
<path d="M1536.58 364.543L1524.38 481.074L1504.15 478.318L1515.9 362.443L1536.58 364.543Z" fill="url(#paint14_linear_96_2063)"/>
<path d="M1516.03 361.329L1536.71 363.428C1536.71 363.428 1537.29 363.625 1537.42 363.822C1537.61 364.084 1537.67 364.347 1537.67 364.609L1525.47 481.206C1525.47 481.206 1525.28 481.796 1525.08 481.993C1524.83 482.19 1524.57 482.256 1524.25 482.19L1504.02 479.369C1503.44 479.303 1503.06 478.778 1503.06 478.188L1514.81 362.313C1514.81 361.788 1515.26 361.394 1515.71 361.329C1515.77 361.329 1515.9 361.329 1515.97 361.329H1516.03ZM1523.41 479.828L1535.36 365.528L1516.86 363.625L1505.37 477.335L1523.41 479.828Z" fill="#007B9C"/>
<path d="M1504.15 478.317L1484.43 475.562C1486.74 451.875 1492.59 391.969 1495.67 360.343L1515.9 362.377L1504.15 478.252V478.317Z" fill="url(#paint15_linear_96_2063)"/>
<path d="M1495.8 359.228L1516.03 361.262C1516.03 361.262 1516.61 361.459 1516.74 361.655C1516.93 361.918 1516.99 362.18 1516.99 362.443L1505.24 478.317C1505.24 478.317 1505.05 478.908 1504.85 479.105C1504.6 479.302 1504.34 479.367 1504.02 479.302L1484.3 476.546C1483.73 476.48 1483.34 475.955 1483.34 475.365L1494.58 360.146C1494.58 359.621 1495.03 359.228 1495.48 359.162C1495.54 359.162 1495.67 359.162 1495.74 359.162L1495.8 359.228ZM1503.25 477.005L1514.74 363.361L1496.63 361.524L1485.59 474.578L1503.18 477.005H1503.25Z" fill="#007B9C"/>
<path d="M1444.94 470.116C1447.12 446.101 1452.32 387.573 1455.15 356.275L1475.38 358.309C1472.42 389.804 1466.9 448.988 1464.65 472.872L1444.87 470.116H1444.94Z" fill="url(#paint16_linear_96_2063)"/>
<path d="M1455.28 355.16L1475.51 357.194C1476.08 357.194 1476.53 357.785 1476.47 358.375L1465.74 472.938C1465.74 472.938 1465.55 473.528 1465.36 473.725C1465.1 473.922 1464.84 473.988 1464.52 473.988L1444.81 471.232C1444.23 471.166 1443.84 470.641 1443.84 470.051L1454.06 356.21C1454.06 356.21 1454.25 355.62 1454.44 355.488C1454.57 355.357 1454.76 355.292 1454.95 355.226C1455.02 355.226 1455.15 355.226 1455.21 355.226L1455.28 355.16ZM1463.69 471.626L1474.22 359.36L1456.11 357.523L1446.09 469.198L1463.69 471.626Z" fill="#007B9C"/>
<path d="M1464.65 472.871C1466.9 448.987 1472.42 389.803 1475.38 358.309L1495.61 360.343C1492.52 391.969 1486.68 451.874 1484.37 475.561L1464.65 472.805V472.871Z" fill="url(#paint17_linear_96_2063)"/>
<path d="M1475.51 357.193L1495.74 359.227C1495.74 359.227 1496.31 359.424 1496.44 359.621C1496.63 359.818 1496.7 360.146 1496.7 360.408L1485.46 475.627C1485.46 475.627 1485.27 476.218 1485.07 476.414C1484.82 476.611 1484.56 476.677 1484.24 476.611L1464.46 473.855C1463.88 473.79 1463.5 473.265 1463.5 472.674L1474.22 358.112C1474.22 358.112 1474.41 357.521 1474.61 357.39C1474.73 357.259 1474.93 357.193 1475.12 357.128C1475.18 357.128 1475.31 357.128 1475.38 357.128L1475.51 357.193ZM1483.47 474.315L1494.52 361.327L1476.4 359.49L1465.87 471.821L1483.47 474.249V474.315Z" fill="#007B9C"/>
<g style="mix-blend-mode:multiply">
<path d="M1294.08 367.363L1294.21 364.607L1533.88 390.525L1533.56 393.215L1294.08 367.363Z" fill="#71C0EB"/>
<path d="M1530.22 425.038L1292.99 395.97L1293.12 393.215L1530.54 422.347L1530.22 425.038Z" fill="#71C0EB"/>
<path d="M1526.75 458.37L1291.7 429.499L1291.83 426.743L1527.08 455.614L1526.75 458.37Z" fill="#71C0EB"/>
</g>
<g style="mix-blend-mode:multiply" opacity="0.3">
<path d="M1524.38 481.072L1536.58 364.541L1295.11 339.936L1524.38 481.072Z" fill="#008BB8"/>
</g>
<path d="M1846.96 326.879C1846.71 327.338 1822.49 366.313 1822.49 366.313L1790.19 361.72L1747.23 274.912C1747.23 274.912 1792.44 259.099 1792.76 258.837H1792.89L1797.83 257.721C1809.33 256.081 1822.24 260.018 1836.5 277.209C1851.59 295.318 1853.83 314.609 1846.9 326.879H1846.96Z" fill="url(#paint18_linear_96_2063)"/>
<path d="M1846.96 326.879C1846.71 327.338 1822.49 366.313 1822.49 366.313L1790.19 361.72L1747.23 274.912C1747.23 274.912 1792.44 259.099 1792.76 258.837H1792.89L1797.83 257.721C1809.33 256.081 1822.24 260.018 1836.5 277.209C1851.59 295.318 1853.83 314.609 1846.9 326.879H1846.96Z" fill="#737679"/>
<g style="mix-blend-mode:multiply" opacity="0.5">
<path d="M1810.04 278.521C1825.83 294.4 1838.61 312.838 1842.08 334.884C1834.95 346.432 1822.56 366.379 1822.56 366.379L1790.26 361.786L1747.29 274.978C1747.29 274.978 1768.48 267.564 1781.97 262.84C1791.35 266.186 1803.1 271.501 1810.1 278.587L1810.04 278.521Z" fill="#737679"/>
</g>
<g style="mix-blend-mode:multiply">
<path d="M1831.36 328.191C1837.33 319.53 1843.62 311.197 1849.6 302.602C1851.65 311.919 1850.62 320.449 1846.96 326.944C1846.71 327.404 1822.49 366.379 1822.49 366.379L1806.63 364.148C1814.98 352.272 1823.07 340.199 1831.29 328.257L1831.36 328.191Z" fill="#B0C7D2"/>
</g>
<g style="mix-blend-mode:multiply">
<path d="M1755.58 291.775L1747.23 274.978C1747.23 274.978 1792.44 259.165 1792.76 258.902H1792.89L1797.83 257.787C1803.23 256.999 1808.88 257.524 1814.85 259.952C1794.49 269.335 1775.1 280.817 1755.51 291.775H1755.58Z" fill="#B0C7D2"/>
</g>
<path d="M1827.83 385.603C1827.31 386.456 1783.96 456.335 1783.96 456.335L1726.03 448.068L1648.9 292.431C1648.9 292.431 1729.95 264.086 1730.66 263.626L1730.91 263.429L1739.78 261.592C1760.46 258.64 1783.51 265.792 1809.14 296.499C1836.24 329.044 1840.22 363.622 1827.83 385.603Z" fill="#648199"/>
<g style="mix-blend-mode:multiply">
<path d="M1751.72 402.401C1763.09 388.294 1774.46 374.187 1785.63 360.014C1797.58 344.923 1810.42 330.553 1822.11 315.265C1837.07 341.773 1837.78 367.822 1827.76 385.604C1827.25 386.457 1783.9 456.336 1783.9 456.336L1725.97 448.068L1722.69 441.441C1730.79 427.269 1741.45 415.064 1751.66 402.401H1751.72Z" fill="#CFD1D2"/>
</g>
<g style="mix-blend-mode:screen" opacity="0.5">
<path d="M1746.46 332.915C1733.1 341.839 1724.75 348.86 1711.2 357.39C1703.49 362.245 1695.72 366.969 1688.79 372.743L1677.87 350.763C1718.58 328.782 1759.94 308.048 1801.75 288.232C1803.04 289.61 1804.32 290.988 1805.67 292.431C1787.43 305.029 1764.95 320.58 1746.52 332.915H1746.46Z" fill="white"/>
</g>
<g style="mix-blend-mode:multiply">
<path d="M1675.94 295.711C1668.43 298.861 1648.9 292.431 1648.9 292.431C1648.9 292.431 1729.95 264.085 1730.66 263.626L1730.91 263.429L1739.78 261.592C1746.01 260.739 1752.43 260.739 1759.04 262.051C1744.85 268.285 1688.66 290.397 1676.01 295.711H1675.94Z" fill="#CFD1D2"/>
</g>
<path d="M1777.73 463.554C1776.64 464.472 1775.55 465.325 1774.39 466.113L1636.32 564.075L1637.22 554.429L1495.48 401.417L1640.94 297.222C1641.84 296.5 1642.74 295.844 1643.7 295.253L1644.02 294.991C1670.23 278.587 1717.94 298.272 1753.97 341.511C1792.05 387.179 1802.71 441.835 1777.73 463.619V463.554Z" fill="url(#paint19_linear_96_2063)"/>
<g style="mix-blend-mode:multiply">
<path d="M1614.8 530.152C1644.41 505.415 1672.54 478.842 1703.04 455.155C1730.02 434.158 1757.37 413.621 1784.03 392.1C1795.14 422.085 1793.79 449.578 1777.8 463.488C1776.7 464.406 1775.61 465.259 1774.46 466.047L1636.38 564.009L1637.28 554.364L1614.87 530.152H1614.8Z" fill="#CFD1D2"/>
</g>
<g style="mix-blend-mode:multiply">
<path d="M1514.94 422.348L1495.54 401.351L1641 297.156C1641.9 296.434 1642.8 295.778 1643.77 295.187L1644.09 294.925C1655.33 287.904 1670.48 287.511 1686.99 292.76C1629.19 335.343 1572.09 378.911 1514.94 422.348Z" fill="#CFD1D2"/>
</g>
<g style="mix-blend-mode:screen" opacity="0.5">
<path d="M1559.25 470.181L1548.2 458.239C1578.52 430.419 1612.04 406.47 1644.99 381.996C1673.95 360.474 1704.71 341.774 1734.19 320.974C1738.36 324.649 1742.41 328.651 1746.46 332.916C1683.39 377.665 1617.31 418.608 1559.25 470.181Z" fill="white"/>
</g>
<path d="M1697.39 521.557C1692.83 524.772 1688.21 527.987 1683.45 531.005C1695.27 503.513 1681.21 455.746 1646.72 414.409C1618.59 380.683 1583.4 359.621 1555.85 357.652C1559.89 354.569 1564 351.419 1568.05 348.335C1596.24 354.437 1628.42 375.303 1655 407.191C1687.57 446.232 1702.66 489.931 1697.39 521.491V521.557Z" fill="#648199"/>
<path d="M1609.79 444.655C1571.71 398.988 1520.52 379.566 1495.54 401.35C1470.56 423.134 1481.16 477.79 1519.3 523.458C1557.39 569.125 1608.57 588.547 1633.55 566.763C1658.54 544.979 1647.94 490.323 1609.79 444.655Z" fill="#737679"/>
<g style="mix-blend-mode:screen" opacity="0.6">
<path d="M1608.57 453.449C1571.97 409.553 1522.84 390.984 1498.88 411.849C1485.72 423.332 1482.89 444.263 1488.99 468.081C1480.45 441.507 1482.51 417.558 1496.96 405.025C1520.97 384.16 1570.1 402.729 1606.65 446.625C1623.15 466.44 1634.33 488.027 1639.33 507.646C1633.62 489.93 1623.22 470.968 1608.57 453.383V453.449Z" fill="white"/>
</g>
<path d="M1591.23 460.995C1568.82 434.093 1538.7 422.676 1523.99 435.536C1509.29 448.331 1515.52 480.482 1537.99 507.384C1560.41 534.286 1590.53 545.703 1605.23 532.842C1619.94 520.047 1613.71 487.896 1591.23 460.995Z" fill="#AA7725"/>
<path d="M1596.76 527.069C1596.24 527.528 1595.66 527.922 1595.09 528.315L1526.3 577.067L1526.75 572.277L1456.17 496.099L1528.62 444.198C1529.07 443.87 1529.52 443.542 1529.97 443.214L1530.16 443.082C1543.19 434.946 1566.96 444.723 1584.87 466.244C1603.82 489.012 1609.15 516.242 1596.69 527.069H1596.76Z" fill="#828487"/>
<path d="M1568.75 510.994C1573.19 507.516 1577.55 504.039 1581.92 500.561C1585.97 511.191 1587.38 522.739 1586.35 534.484L1526.3 577.067L1526.75 572.277L1511.85 556.136C1530.09 540.126 1549.68 525.888 1568.75 510.928V510.994Z" fill="white"/>
<path d="M1596.76 527.069C1596.24 527.529 1595.66 527.922 1595.09 528.316L1590.08 531.859C1590.65 520.311 1589.11 508.763 1585 498.199C1589.43 494.656 1593.87 491.178 1598.3 487.701C1605.43 504.104 1605.43 519.589 1596.76 527.135V527.069Z" fill="#C0C2C4"/>
<path d="M1545.83 461.52C1553.28 465.523 1560.15 470.575 1565.74 476.021C1572.22 482.32 1577.1 489.538 1580.51 497.28C1575.11 501.545 1569.65 505.875 1564.2 510.075C1545.76 524.379 1526.95 538.223 1509.41 553.643L1474.03 515.455C1479.29 511.584 1484.24 507.319 1489.38 503.448C1499.46 495.902 1509.54 488.422 1519.75 481.073C1528.55 474.709 1537.16 468.147 1545.76 461.586L1545.83 461.52Z" fill="#C0C2C4"/>
<path d="M1583.59 494.853C1579.99 486.848 1574.92 479.565 1568.18 473.397C1562.46 468.148 1555.85 463.292 1548.72 459.29C1553.73 455.419 1558.74 451.547 1563.75 447.742C1571.07 452.138 1578.39 458.437 1584.94 466.311C1589.82 472.15 1593.8 478.318 1596.82 484.486C1592.39 487.963 1588.02 491.441 1583.59 494.918V494.853Z" fill="white"/>
<path d="M1542.3 459.682C1533.37 466.506 1524.38 473.33 1515.26 479.957C1505.05 487.372 1494.96 494.852 1484.88 502.397C1480.39 505.744 1476.15 509.418 1471.65 512.764L1456.24 496.098L1516.99 452.531C1525.53 453.187 1534.2 455.811 1542.3 459.617V459.682Z" fill="white"/>
<path d="M1521.29 449.512L1528.68 444.263C1529.13 443.935 1529.58 443.607 1530.03 443.279L1530.22 443.148C1537.8 438.423 1548.91 439.736 1560.41 445.838C1555.33 449.709 1550.32 453.58 1545.31 457.452C1537.67 453.58 1529.58 450.759 1521.29 449.578V449.512Z" fill="#C0C2C4"/>
<path d="M1513.14 517.687C1494.19 494.919 1468.7 485.274 1456.24 496.1C1443.78 506.926 1449.11 534.156 1468.06 556.924C1487 579.692 1512.5 589.338 1524.96 578.511C1537.41 567.685 1532.08 540.455 1513.14 517.687Z" fill="white"/>
<path d="M1550.71 485.534C1508.07 434.42 1450.84 412.702 1422.91 437.045C1394.97 461.387 1406.85 522.54 1449.5 573.653C1492.14 624.767 1549.36 646.485 1577.3 622.142C1605.23 597.799 1593.35 536.647 1550.71 485.534Z" fill="#AA7725"/>
<path d="M1548.33 487.633C1505.69 436.52 1448.98 414.342 1421.69 438.16C1394.39 461.913 1406.79 522.671 1449.43 573.785C1492.07 624.898 1548.78 647.076 1576.08 623.258C1603.37 599.506 1590.98 538.747 1548.33 487.633Z" fill="url(#paint20_radial_96_2063)"/>
<path style="mix-blend-mode:color-dodge" opacity="0.4" d="M1449.69 470.443C1473.13 479.498 1496.76 490.783 1516.8 506.334C1537.09 522.081 1555.78 540.716 1569.4 562.893C1577.1 575.426 1584.94 589.205 1589.31 603.705C1586.8 611.054 1582.88 617.353 1577.3 622.209C1568.82 629.623 1557.58 632.707 1544.93 632.116C1549.75 613.416 1550.32 593.732 1546.98 574.442C1542.81 550.361 1534.46 523.656 1513.91 508.827C1493.29 493.999 1465.61 494.064 1441.66 498.132C1432.54 499.707 1421.62 500.429 1411.41 502.856C1407.17 486.453 1406.6 471.296 1409.93 458.764C1423.87 460.798 1438.06 465.981 1449.62 470.443H1449.69Z" fill="url(#paint21_radial_96_2063)"/>
<path d="M1527.78 504.431C1522.9 498.526 1516.29 496.032 1513.07 498.854C1509.86 501.675 1511.21 508.696 1516.16 514.536C1521.04 520.441 1527.65 522.934 1530.86 520.113C1534.08 517.291 1532.73 510.271 1527.78 504.431Z" fill="#696768"/>
<path d="M1527.78 504.432C1525.08 501.151 1521.42 499.773 1519.63 501.348C1517.83 502.922 1518.6 506.794 1521.3 510.074C1523.99 513.355 1527.65 514.733 1529.45 513.158C1531.25 511.583 1530.48 507.712 1527.78 504.432Z" fill="#151515"/>
<path d="M1420.72 446.165C1419.63 446.494 1418.93 447.675 1419.25 448.856L1444.81 549.18C1445.13 550.361 1446.28 551.083 1447.44 550.755C1448.6 550.492 1449.3 549.245 1448.98 548.064L1423.42 447.74C1423.1 446.559 1421.94 445.837 1420.79 446.165C1420.79 446.165 1420.79 446.165 1420.72 446.165Z" fill="#AA7725"/>
<path d="M1464.65 570.439C1464.2 570.57 1463.75 570.833 1463.5 571.292C1462.72 572.342 1462.92 573.851 1463.95 574.704L1526.56 625.03C1527.59 625.883 1529.07 625.686 1529.84 624.571C1530.61 623.521 1530.41 621.946 1529.39 621.159L1466.77 570.833C1466.13 570.308 1465.36 570.177 1464.72 570.439H1464.65Z" fill="#AA7725"/>
<path d="M1560.21 505.611L1462.21 559.612C1461.63 559.415 1461.12 559.021 1460.8 558.299C1460.41 557.381 1460.48 556.528 1460.8 555.806L1558.35 502.068C1559.31 501.543 1560.53 501.871 1561.05 502.921C1561.56 503.905 1561.24 505.152 1560.21 505.677V505.611Z" fill="#AA7725"/>
<path d="M1648 442.294C1639.78 429.237 1613.32 391.574 1569.14 371.693L1548.59 388.753C1545.19 387.178 1543.26 386.391 1543.26 386.391L1567.53 366.181C1621.55 390.459 1652.11 439.144 1652.11 439.144L1647.94 442.294H1648Z" fill="#737679"/>
<path d="M1648 442.294L1629 456.532C1602.47 416.77 1562.85 395.511 1548.65 388.818L1569.2 371.759C1613.39 391.64 1639.85 429.237 1648.07 442.359L1648 442.294Z" fill="white"/>
<g style="mix-blend-mode:multiply">
<path d="M1633.11 432.19C1633.43 431.928 1633.75 431.666 1634.07 431.403C1635.93 433.962 1637.41 436.127 1638.31 437.571L1628.8 444.723C1627.45 442.689 1626.04 440.851 1624.56 439.014C1627.52 436.915 1630.22 434.487 1633.04 432.19H1633.11Z" fill="#737679"/>
</g>
<g style="mix-blend-mode:multiply">
<path d="M1625.98 424.513C1626.49 424.185 1627 423.791 1627.52 423.463C1629.25 425.3 1630.73 427.137 1632.08 428.843C1628.99 431.599 1625.59 434.224 1622.32 436.323C1620.71 434.486 1619.04 432.715 1617.37 431.074C1620.2 428.843 1622.96 426.547 1625.85 424.578L1625.98 424.513Z" fill="#5C5E4F"/>
</g>
<path d="M1619.49 415.589C1621.48 417.295 1623.34 419.067 1625.01 420.838C1624.24 421.363 1623.47 421.888 1622.64 422.479C1619.94 424.447 1617.43 426.547 1614.8 428.581C1612.81 426.743 1610.82 425.103 1608.89 423.594C1612.43 421.035 1615.96 418.41 1619.43 415.655L1619.49 415.589Z" fill="#648199"/>
<path d="M1466.77 571.62L1458.68 578.706L1441.66 552.788L1448.4 547.014C1448.4 547.014 1448.92 546.424 1449.24 546.227C1453.09 543.471 1460.09 546.883 1464.97 553.904C1469.79 560.924 1470.62 568.864 1466.77 571.62Z" fill="url(#paint22_radial_96_2063)"/>
<path d="M1457.33 560.53C1452.51 553.51 1445.45 550.098 1441.6 552.854C1437.74 555.609 1438.58 563.549 1443.39 570.569C1448.21 577.59 1455.28 581.002 1459.13 578.246C1462.98 575.49 1462.15 567.551 1457.33 560.53Z" fill="#AA7725"/>
<path d="M1452.26 563.745C1450.33 560.924 1447.44 559.546 1445.9 560.661C1444.36 561.777 1444.68 564.992 1446.61 567.813C1448.53 570.635 1451.42 572.013 1452.96 570.897C1454.5 569.782 1454.18 566.567 1452.26 563.745Z" fill="#65470D"/>
<path d="M1711.01 463.617C1709.91 456.071 1705.03 450.494 1700.15 451.282C1695.27 452.069 1692.25 458.762 1693.41 466.373C1694.57 473.919 1699.38 479.496 1704.26 478.708C1709.14 477.987 1712.16 471.228 1711.01 463.617Z" fill="#737679"/>
<g style="mix-blend-mode:multiply">
<path d="M1710.11 464.733C1709.34 459.353 1705.87 455.416 1702.4 455.941C1698.93 456.466 1696.81 461.256 1697.58 466.636C1698.35 472.016 1701.82 475.953 1705.29 475.428C1708.76 474.903 1710.88 470.113 1710.11 464.733Z" fill="#6E7E86"/>
</g>
<path d="M1814.79 546.95C1817.04 518.08 1822.24 451.416 1825.13 414.934L1849.02 417.362C1846 453.975 1840.48 521.426 1838.1 550.165L1814.79 546.95Z" fill="url(#paint23_linear_96_2063)"/>
<path d="M1825.19 413.884L1849.08 416.311C1849.66 416.311 1850.11 416.902 1850.05 417.492L1839.13 550.295C1839.13 550.295 1838.94 550.886 1838.74 551.083C1838.49 551.28 1838.23 551.345 1837.91 551.345L1814.6 548.13C1814.02 548.065 1813.63 547.54 1813.63 546.949L1823.97 414.933C1823.97 414.933 1824.16 414.343 1824.36 414.146C1824.49 414.015 1824.68 413.949 1824.87 413.884C1824.94 413.884 1825.06 413.884 1825.13 413.884H1825.19ZM1837.07 548.983L1847.8 418.477L1826.09 416.246L1815.94 546.096L1837.14 549.049L1837.07 548.983Z" fill="#007B9C"/>
<path d="M1791.48 543.732C1793.6 514.73 1798.54 448.788 1801.24 412.503L1825.13 414.931C1822.3 451.347 1817.1 518.076 1814.79 546.947L1791.48 543.732Z" fill="url(#paint24_linear_96_2063)"/>
<path d="M1801.3 411.452L1825.19 413.88C1825.77 413.88 1826.22 414.471 1826.16 415.061L1815.82 547.077C1815.82 547.077 1815.62 547.668 1815.43 547.864C1815.17 548.061 1814.92 548.127 1814.6 548.127L1791.28 544.912C1790.71 544.846 1790.32 544.321 1790.32 543.731C1792.44 514.729 1797.38 448.787 1800.08 412.502C1800.08 412.174 1800.27 411.912 1800.47 411.715C1800.6 411.584 1800.79 411.518 1800.98 411.452C1801.04 411.452 1801.17 411.452 1801.24 411.452H1801.3ZM1813.76 545.699L1823.91 415.98L1802.2 413.749C1799.5 449.771 1794.82 513.548 1792.63 542.746L1813.83 545.699H1813.76Z" fill="#007B9C"/>
<path d="M1768.16 540.516C1770.22 511.383 1774.78 446.163 1777.35 410.14L1801.24 412.568C1798.54 448.853 1793.66 514.795 1791.48 543.796L1768.16 540.581V540.516Z" fill="url(#paint25_linear_96_2063)"/>
<path d="M1777.41 409.026L1801.3 411.453C1801.88 411.453 1802.33 412.044 1802.27 412.634C1799.57 448.853 1794.69 514.861 1792.5 543.863C1792.5 544.191 1792.31 544.453 1792.12 544.65C1791.86 544.847 1791.6 544.913 1791.28 544.913L1767.97 541.698C1767.39 541.632 1767.01 541.107 1767.01 540.516C1768.81 515.321 1772.47 463.157 1775.04 426.151L1776.19 410.141C1776.19 410.141 1776.32 409.551 1776.58 409.354C1776.7 409.222 1776.9 409.157 1777.09 409.091C1777.15 409.091 1777.28 409.091 1777.35 409.091L1777.41 409.026ZM1790.45 542.485C1792.63 513.221 1797.32 449.51 1800.02 413.553L1778.31 411.322L1777.28 426.217C1774.71 462.698 1771.12 513.943 1769.32 539.532L1790.51 542.485H1790.45Z" fill="#007B9C"/>
<path d="M1744.85 537.302C1746.78 508.038 1751.08 443.605 1753.46 407.714L1777.35 410.142C1774.78 446.23 1770.22 511.385 1768.16 540.517L1744.85 537.302Z" fill="url(#paint26_linear_96_2063)"/>
<path d="M1753.52 406.599L1777.41 409.026C1777.99 409.026 1778.44 409.617 1778.37 410.207L1777.28 425.824C1774.65 462.83 1770.99 515.321 1769.19 540.648C1769.19 540.976 1769 541.239 1768.81 541.436C1768.55 541.633 1768.29 541.698 1767.97 541.698L1744.66 538.483C1744.08 538.418 1743.69 537.893 1743.69 537.302C1745.49 510.532 1749.22 454.3 1751.66 417.425L1752.3 407.714C1752.3 407.714 1752.43 407.123 1752.69 406.927C1752.81 406.795 1753.01 406.73 1753.2 406.664C1753.26 406.664 1753.39 406.664 1753.46 406.664L1753.52 406.599ZM1767.14 539.271C1768.93 513.55 1772.59 462.108 1775.1 425.627L1776.13 411.126L1754.42 408.895L1753.84 417.491C1751.4 453.906 1747.74 509.154 1745.94 536.318L1767.14 539.271Z" fill="#007B9C"/>
<path d="M1721.47 534.087C1723.27 504.692 1727.32 440.981 1729.5 405.286L1753.39 407.714C1751.02 443.605 1746.71 508.104 1744.79 537.302L1721.47 534.087Z" fill="url(#paint27_linear_96_2063)"/>
<path d="M1729.63 404.172L1753.52 406.599C1754.1 406.599 1754.55 407.19 1754.48 407.78L1753.84 417.754C1751.4 454.629 1747.68 510.664 1745.88 537.368C1745.88 537.697 1745.69 537.959 1745.49 538.156C1745.24 538.353 1744.98 538.418 1744.66 538.418L1721.35 535.203C1720.77 535.138 1720.38 534.613 1720.38 534.022C1722.18 504.627 1726.23 440.916 1728.41 405.221C1728.41 404.893 1728.54 404.631 1728.8 404.434C1728.92 404.303 1729.12 404.237 1729.31 404.172C1729.37 404.172 1729.5 404.172 1729.57 404.172H1729.63ZM1743.82 536.056C1745.62 508.892 1749.28 453.973 1751.66 417.623L1752.24 408.699L1730.53 406.468C1728.28 441.965 1724.43 503.643 1722.63 533.104L1743.82 536.056Z" fill="#007B9C"/>
<path d="M1703.11 531.528L1707.92 403.056L1729.57 405.287C1727.32 440.981 1723.34 504.758 1721.54 534.087L1703.11 531.528Z" fill="url(#paint28_linear_96_2063)"/>
<path d="M1708.05 401.94L1729.69 404.171C1730.27 404.171 1730.72 404.761 1730.66 405.352C1728.41 441.046 1724.43 504.823 1722.63 534.153C1722.63 534.481 1722.44 534.743 1722.24 534.94C1721.99 535.137 1721.73 535.202 1721.41 535.202L1702.98 532.643C1702.4 532.578 1702.02 532.053 1702.02 531.528L1706.83 403.055C1706.83 403.055 1706.96 402.465 1707.22 402.268C1707.35 402.137 1707.54 402.006 1707.8 402.006C1707.86 402.006 1707.99 402.006 1708.05 402.006V401.94ZM1720.51 532.775C1722.37 503.183 1726.23 441.636 1728.41 406.205L1708.95 404.236L1704.2 530.478L1720.51 532.709V532.775Z" fill="#007B9C"/>
<path d="M1861.41 553.444C1863.85 524.902 1869.76 456.663 1872.91 419.853L1896.8 422.281C1893.46 459.222 1887.29 528.314 1884.73 556.659L1861.41 553.444Z" fill="url(#paint29_linear_96_2063)"/>
<path d="M1873.04 418.738L1896.93 421.166C1897.51 421.166 1897.96 421.756 1897.89 422.347L1885.82 556.725C1885.82 556.725 1885.62 557.315 1885.43 557.512C1885.18 557.709 1884.92 557.775 1884.6 557.709L1861.28 554.494C1860.71 554.428 1860.32 553.903 1860.32 553.313L1871.82 419.722C1871.82 419.722 1872.01 419.132 1872.2 418.935C1872.33 418.804 1872.52 418.738 1872.72 418.672C1872.78 418.672 1872.91 418.672 1872.97 418.672L1873.04 418.738ZM1883.76 555.412L1895.64 423.265L1873.94 421.034L1862.63 552.46L1883.76 555.412Z" fill="#007B9C"/>
<path d="M1838.1 550.228C1840.48 521.489 1846 454.038 1849.02 417.425L1872.91 419.853C1869.76 456.662 1863.85 524.901 1861.41 553.443L1838.1 550.228Z" fill="url(#paint30_linear_96_2063)"/>
<path d="M1849.08 416.31L1872.97 418.738C1873.55 418.738 1874 419.329 1873.94 419.919L1862.44 553.51C1862.44 553.51 1862.25 554.1 1862.06 554.297C1861.8 554.494 1861.54 554.559 1861.22 554.559L1837.91 551.344C1837.33 551.279 1836.94 550.754 1836.94 550.163L1847.86 417.36C1847.86 417.36 1848.05 416.77 1848.25 416.573C1848.38 416.441 1848.57 416.376 1848.76 416.31C1848.83 416.31 1848.95 416.31 1849.02 416.31H1849.08ZM1860.39 552.197L1871.69 420.838L1849.98 418.607L1839.26 549.245L1860.39 552.197Z" fill="#007B9C"/>
<path d="M1992.87 432.056L1978.49 569.649L1954.66 566.303L1968.53 429.563L1992.87 432.056Z" fill="url(#paint31_linear_96_2063)"/>
<path d="M1968.6 428.448L1993 430.941C1993 430.941 1993.58 431.138 1993.71 431.335C1993.9 431.532 1993.97 431.86 1993.97 432.122L1979.58 569.715C1979.58 569.715 1979.39 570.306 1979.2 570.437C1978.94 570.634 1978.68 570.699 1978.36 570.634L1954.47 567.353C1953.89 567.287 1953.44 566.762 1953.51 566.106L1967.38 429.366C1967.38 428.841 1967.83 428.448 1968.28 428.382C1968.34 428.382 1968.47 428.382 1968.54 428.382L1968.6 428.448ZM1977.53 568.337L1991.65 433.041L1969.43 430.81L1955.82 565.385L1977.53 568.403V568.337Z" fill="#007B9C"/>
<path d="M1954.66 566.304L1931.35 563.089C1934.05 535.137 1940.98 464.47 1944.58 427.136L1968.47 429.564L1954.6 566.304H1954.66Z" fill="url(#paint32_linear_96_2063)"/>
<path d="M1944.71 426.02L1968.6 428.448C1968.6 428.448 1969.18 428.645 1969.31 428.842C1969.5 429.039 1969.56 429.367 1969.56 429.629L1955.69 566.369C1955.69 566.369 1955.5 566.96 1955.31 567.156C1955.05 567.353 1954.79 567.419 1954.47 567.353L1931.16 564.138C1930.58 564.073 1930.19 563.548 1930.19 562.957L1943.42 427.005C1943.42 426.48 1943.87 426.086 1944.32 426.02C1944.39 426.02 1944.52 426.02 1944.58 426.02H1944.71ZM1953.7 565.057L1967.31 430.548L1945.61 428.317L1932.57 562.104L1953.7 565.057Z" fill="#007B9C"/>
<path d="M1884.73 556.657C1887.29 528.312 1893.46 459.22 1896.8 422.279L1920.69 424.707C1917.22 461.844 1910.67 531.724 1908.04 559.872L1884.73 556.657Z" fill="url(#paint33_linear_96_2063)"/>
<path d="M1896.93 421.164L1920.82 423.592C1921.4 423.592 1921.85 424.182 1921.78 424.773L1909.13 559.938C1909.13 559.938 1908.94 560.529 1908.74 560.726C1908.49 560.922 1908.23 560.988 1907.91 560.988L1884.6 557.773C1884.02 557.707 1883.63 557.183 1883.63 556.592L1895.71 422.214C1895.71 422.214 1895.9 421.624 1896.09 421.427C1896.22 421.295 1896.41 421.23 1896.61 421.164C1896.67 421.164 1896.8 421.164 1896.86 421.164H1896.93ZM1907.07 558.626L1919.53 425.692L1897.83 423.461L1885.95 555.673L1907.07 558.626Z" fill="#007B9C"/>
<path d="M1908.04 559.872C1910.67 531.724 1917.22 461.845 1920.69 424.707L1944.58 427.135C1940.92 464.469 1934.05 535.136 1931.35 563.087L1908.04 559.872Z" fill="url(#paint34_linear_96_2063)"/>
<path d="M1920.82 423.591L1944.71 426.019C1944.71 426.019 1945.29 426.216 1945.41 426.413C1945.61 426.61 1945.67 426.938 1945.67 427.2L1932.38 563.153C1932.38 563.153 1932.19 563.743 1931.99 563.94C1931.74 564.137 1931.48 564.203 1931.16 564.137L1907.85 560.922C1907.27 560.856 1906.88 560.331 1906.88 559.741L1919.53 424.575C1919.53 424.575 1919.73 423.985 1919.92 423.854C1920.05 423.722 1920.24 423.657 1920.43 423.591C1920.5 423.591 1920.63 423.591 1920.69 423.591H1920.82ZM1930.39 561.84L1943.42 428.119L1921.72 425.888L1909.26 558.888L1930.39 561.84Z" fill="#007B9C"/>
<g style="mix-blend-mode:multiply">
<path d="M1706.7 435.406L1706.83 432.19L1989.66 462.767L1989.34 465.916L1706.7 435.406Z" fill="#71C0EB"/>
<path d="M1985.43 503.512L1705.42 469.131L1705.55 465.916L1985.75 500.297L1985.43 503.512Z" fill="#71C0EB"/>
<path d="M1981.31 542.75L1703.94 508.762L1704.07 505.481L1981.64 539.601L1981.31 542.75Z" fill="#71C0EB"/>
</g>
<g style="mix-blend-mode:multiply" opacity="0.3">
<path d="M1978.49 569.65L1992.87 432.057L1707.92 403.056L1978.49 569.65Z" fill="#008BB8"/>
</g>
<defs>
<linearGradient id="paint0_linear_96_2063" x1="180.19" y1="1034.52" x2="2069.13" y2="1034.52" gradientUnits="userSpaceOnUse">
<stop offset="0.01" stop-color="#298CD7"/>
<stop offset="0.02" stop-color="#288DD7"/>
<stop offset="0.43" stop-color="#26B4E4"/>
<stop offset="0.76" stop-color="#25CCEC"/>
<stop offset="0.96" stop-color="#25D5F0"/>
</linearGradient>
<linearGradient id="paint1_linear_96_2063" x1="164.466" y1="377.835" x2="365.895" y2="1781.47" gradientUnits="userSpaceOnUse">
<stop stop-color="#1FB7CF"/>
<stop offset="0.1" stop-color="#39BBB8"/>
<stop offset="0.29" stop-color="#7BC77E"/>
<stop offset="0.41" stop-color="#A4CF5B"/>
<stop offset="0.47" stop-color="#B1C74F"/>
<stop offset="0.58" stop-color="#D4B32F"/>
<stop offset="0.66" stop-color="#F1A317"/>
<stop offset="0.82" stop-color="#FF6A33"/>
<stop offset="0.86" stop-color="#FC6331"/>
<stop offset="0.91" stop-color="#F5502E"/>
<stop offset="0.97" stop-color="#E93128"/>
<stop offset="1" stop-color="#E11C24"/>
</linearGradient>
<linearGradient id="paint2_linear_96_2063" x1="1028.95" y1="631.049" x2="1170.43" y2="1416.63" gradientUnits="userSpaceOnUse">
<stop stop-color="#AECE35"/>
<stop offset="0.34" stop-color="#ABCC36"/>
<stop offset="0.54" stop-color="#A2C939"/>
<stop offset="0.72" stop-color="#94C340"/>
<stop offset="0.87" stop-color="#80BB49"/>
<stop offset="1" stop-color="#68B254"/>
</linearGradient>
<linearGradient id="paint3_linear_96_2063" x1="1322.24" y1="835.472" x2="1415.04" y2="1351.95" gradientUnits="userSpaceOnUse">
<stop stop-color="#AECE35"/>
<stop offset="0.34" stop-color="#ABCC36"/>
<stop offset="0.54" stop-color="#A2C939"/>
<stop offset="0.72" stop-color="#94C340"/>
<stop offset="0.87" stop-color="#80BB49"/>
<stop offset="1" stop-color="#68B254"/>
</linearGradient>
<linearGradient id="paint4_linear_96_2063" x1="623.156" y1="837.357" x2="722.614" y2="761.281" gradientUnits="userSpaceOnUse">
<stop offset="0.01" stop-color="#298CD7"/>
<stop offset="0.02" stop-color="#288DD7"/>
<stop offset="0.43" stop-color="#26B4E4"/>
<stop offset="0.76" stop-color="#25CCEC"/>
<stop offset="0.96" stop-color="#25D5F0"/>
</linearGradient>
<linearGradient id="paint5_linear_96_2063" x1="399.408" y1="1271" x2="1016.12" y2="799.409" gradientUnits="userSpaceOnUse">
<stop offset="0.01" stop-color="#298CD7"/>
<stop offset="0.02" stop-color="#288DD7"/>
<stop offset="0.43" stop-color="#26B4E4"/>
<stop offset="0.76" stop-color="#25CCEC"/>
<stop offset="0.96" stop-color="#25D5F0"/>
</linearGradient>
<linearGradient id="paint6_linear_96_2063" x1="1340.57" y1="471.758" x2="1470.25" y2="336.49" gradientUnits="userSpaceOnUse">
<stop stop-color="#E3F3FC"/>
<stop offset="0.28" stop-color="#3DB8C9"/>
<stop offset="0.36" stop-color="#36B1C5"/>
<stop offset="0.46" stop-color="#239EBA"/>
<stop offset="0.58" stop-color="#0480A9"/>
<stop offset="0.6" stop-color="#007CA7"/>
<stop offset="0.73" stop-color="#066690"/>
<stop offset="0.87" stop-color="#0F4D75"/>
</linearGradient>
<linearGradient id="paint7_linear_96_2063" x1="1328.77" y1="460.431" x2="1458.45" y2="325.163" gradientUnits="userSpaceOnUse">
<stop stop-color="#E3F3FC"/>
<stop offset="0.28" stop-color="#3DB8C9"/>
<stop offset="0.36" stop-color="#36B1C5"/>
<stop offset="0.46" stop-color="#239EBA"/>
<stop offset="0.58" stop-color="#0480A9"/>
<stop offset="0.6" stop-color="#007CA7"/>
<stop offset="0.73" stop-color="#066690"/>
<stop offset="0.87" stop-color="#0F4D75"/>
</linearGradient>
<linearGradient id="paint8_linear_96_2063" x1="1316.97" y1="449.105" x2="1446.65" y2="313.836" gradientUnits="userSpaceOnUse">
<stop stop-color="#E3F3FC"/>
<stop offset="0.28" stop-color="#3DB8C9"/>
<stop offset="0.36" stop-color="#36B1C5"/>
<stop offset="0.46" stop-color="#239EBA"/>
<stop offset="0.58" stop-color="#0480A9"/>
<stop offset="0.6" stop-color="#007CA7"/>
<stop offset="0.73" stop-color="#066690"/>
<stop offset="0.87" stop-color="#0F4D75"/>
</linearGradient>
<linearGradient id="paint9_linear_96_2063" x1="1305.17" y1="437.78" x2="1434.85" y2="302.512" gradientUnits="userSpaceOnUse">
<stop stop-color="#E3F3FC"/>
<stop offset="0.28" stop-color="#3DB8C9"/>
<stop offset="0.36" stop-color="#36B1C5"/>
<stop offset="0.46" stop-color="#239EBA"/>
<stop offset="0.58" stop-color="#0480A9"/>
<stop offset="0.6" stop-color="#007CA7"/>
<stop offset="0.73" stop-color="#066690"/>
<stop offset="0.87" stop-color="#0F4D75"/>
</linearGradient>
<linearGradient id="paint10_linear_96_2063" x1="1293.38" y1="426.454" x2="1423.06" y2="291.186" gradientUnits="userSpaceOnUse">
<stop stop-color="#E3F3FC"/>
<stop offset="0.28" stop-color="#3DB8C9"/>
<stop offset="0.36" stop-color="#36B1C5"/>
<stop offset="0.46" stop-color="#239EBA"/>
<stop offset="0.58" stop-color="#0480A9"/>
<stop offset="0.6" stop-color="#007CA7"/>
<stop offset="0.73" stop-color="#066690"/>
<stop offset="0.87" stop-color="#0F4D75"/>
</linearGradient>
<linearGradient id="paint11_linear_96_2063" x1="1282.12" y1="415.711" x2="1411.8" y2="280.443" gradientUnits="userSpaceOnUse">
<stop stop-color="#E3F3FC"/>
<stop offset="0.28" stop-color="#3DB8C9"/>
<stop offset="0.36" stop-color="#36B1C5"/>
<stop offset="0.46" stop-color="#239EBA"/>
<stop offset="0.58" stop-color="#0480A9"/>
<stop offset="0.6" stop-color="#007CA7"/>
<stop offset="0.73" stop-color="#066690"/>
<stop offset="0.87" stop-color="#0F4D75"/>
</linearGradient>
<linearGradient id="paint12_linear_96_2063" x1="1364.23" y1="494.399" x2="1493.91" y2="359.131" gradientUnits="userSpaceOnUse">
<stop stop-color="#E3F3FC"/>
<stop offset="0.28" stop-color="#3DB8C9"/>
<stop offset="0.36" stop-color="#36B1C5"/>
<stop offset="0.46" stop-color="#239EBA"/>
<stop offset="0.58" stop-color="#0480A9"/>
<stop offset="0.6" stop-color="#007CA7"/>
<stop offset="0.73" stop-color="#066690"/>
<stop offset="0.87" stop-color="#0F4D75"/>
</linearGradient>
<linearGradient id="paint13_linear_96_2063" x1="1352.43" y1="483.073" x2="1482.11" y2="347.805" gradientUnits="userSpaceOnUse">
<stop stop-color="#E3F3FC"/>
<stop offset="0.28" stop-color="#3DB8C9"/>
<stop offset="0.36" stop-color="#36B1C5"/>
<stop offset="0.46" stop-color="#239EBA"/>
<stop offset="0.58" stop-color="#0480A9"/>
<stop offset="0.6" stop-color="#007CA7"/>
<stop offset="0.73" stop-color="#066690"/>
<stop offset="0.87" stop-color="#0F4D75"/>
</linearGradient>
<linearGradient id="paint14_linear_96_2063" x1="1411.56" y1="539.811" x2="1541.24" y2="404.543" gradientUnits="userSpaceOnUse">
<stop stop-color="#E3F3FC"/>
<stop offset="0.28" stop-color="#3DB8C9"/>
<stop offset="0.36" stop-color="#36B1C5"/>
<stop offset="0.46" stop-color="#239EBA"/>
<stop offset="0.58" stop-color="#0480A9"/>
<stop offset="0.6" stop-color="#007CA7"/>
<stop offset="0.73" stop-color="#066690"/>
<stop offset="0.87" stop-color="#0F4D75"/>
</linearGradient>
<linearGradient id="paint15_linear_96_2063" x1="1399.62" y1="528.374" x2="1529.3" y2="393.106" gradientUnits="userSpaceOnUse">
<stop stop-color="#E3F3FC"/>
<stop offset="0.28" stop-color="#3DB8C9"/>
<stop offset="0.36" stop-color="#36B1C5"/>
<stop offset="0.46" stop-color="#239EBA"/>
<stop offset="0.58" stop-color="#0480A9"/>
<stop offset="0.6" stop-color="#007CA7"/>
<stop offset="0.73" stop-color="#066690"/>
<stop offset="0.87" stop-color="#0F4D75"/>
</linearGradient>
<linearGradient id="paint16_linear_96_2063" x1="1376.02" y1="505.724" x2="1505.7" y2="370.456" gradientUnits="userSpaceOnUse">
<stop stop-color="#E3F3FC"/>
<stop offset="0.28" stop-color="#3DB8C9"/>
<stop offset="0.36" stop-color="#36B1C5"/>
<stop offset="0.46" stop-color="#239EBA"/>
<stop offset="0.58" stop-color="#0480A9"/>
<stop offset="0.6" stop-color="#007CA7"/>
<stop offset="0.73" stop-color="#066690"/>
<stop offset="0.87" stop-color="#0F4D75"/>
</linearGradient>
<linearGradient id="paint17_linear_96_2063" x1="1387.82" y1="517.049" x2="1517.5" y2="381.781" gradientUnits="userSpaceOnUse">
<stop stop-color="#E3F3FC"/>
<stop offset="0.28" stop-color="#3DB8C9"/>
<stop offset="0.36" stop-color="#36B1C5"/>
<stop offset="0.46" stop-color="#239EBA"/>
<stop offset="0.58" stop-color="#0480A9"/>
<stop offset="0.6" stop-color="#007CA7"/>
<stop offset="0.73" stop-color="#066690"/>
<stop offset="0.87" stop-color="#0F4D75"/>
</linearGradient>
<linearGradient id="paint18_linear_96_2063" x1="1709.08" y1="231.833" x2="1952.49" y2="426.253" gradientUnits="userSpaceOnUse">
<stop offset="0.46" stop-color="#E5E0DF"/>
<stop offset="1" stop-color="#8CA99C"/>
</linearGradient>
<linearGradient id="paint19_linear_96_2063" x1="1453.71" y1="249.55" x2="1999.54" y2="685.648" gradientUnits="userSpaceOnUse">
<stop offset="0.46" stop-color="#E5E0DF"/>
<stop offset="1" stop-color="#8CA99C"/>
</linearGradient>
<radialGradient id="paint20_radial_96_2063" cx="0" cy="0" r="1" gradientUnits="userSpaceOnUse" gradientTransform="translate(1373.12 625.583) rotate(-16.7257) scale(235.718 239.992)">
<stop offset="0.46" stop-color="#E9DCA3"/>
<stop offset="1" stop-color="#A88034"/>
</radialGradient>
<radialGradient id="paint21_radial_96_2063" cx="0" cy="0" r="1" gradientUnits="userSpaceOnUse" gradientTransform="translate(1666.08 315.473) rotate(-16.7257) scale(307.708 313.286)">
<stop offset="0.46" stop-color="#E5E0DF"/>
<stop offset="1" stop-color="#77787B"/>
</radialGradient>
<radialGradient id="paint22_radial_96_2063" cx="0" cy="0" r="1" gradientUnits="userSpaceOnUse" gradientTransform="translate(1433.21 584.34) rotate(-16.7257) scale(41.8812 42.6405)">
<stop offset="0.46" stop-color="#E9DCA3"/>
<stop offset="1" stop-color="#A88034"/>
</radialGradient>
<linearGradient id="paint23_linear_96_2063" x1="1761.59" y1="558.634" x2="1914.62" y2="398.994" gradientUnits="userSpaceOnUse">
<stop stop-color="#E3F3FC"/>
<stop offset="0.28" stop-color="#3DB8C9"/>
<stop offset="0.36" stop-color="#36B1C5"/>
<stop offset="0.46" stop-color="#239EBA"/>
<stop offset="0.58" stop-color="#0480A9"/>
<stop offset="0.6" stop-color="#007CA7"/>
<stop offset="0.73" stop-color="#066690"/>
<stop offset="0.87" stop-color="#0F4D75"/>
</linearGradient>
<linearGradient id="paint24_linear_96_2063" x1="1747.68" y1="545.308" x2="1900.71" y2="385.667" gradientUnits="userSpaceOnUse">
<stop stop-color="#E3F3FC"/>
<stop offset="0.28" stop-color="#3DB8C9"/>
<stop offset="0.36" stop-color="#36B1C5"/>
<stop offset="0.46" stop-color="#239EBA"/>
<stop offset="0.58" stop-color="#0480A9"/>
<stop offset="0.6" stop-color="#007CA7"/>
<stop offset="0.73" stop-color="#066690"/>
<stop offset="0.87" stop-color="#0F4D75"/>
</linearGradient>
<linearGradient id="paint25_linear_96_2063" x1="1733.76" y1="531.919" x2="1886.79" y2="372.277" gradientUnits="userSpaceOnUse">
<stop stop-color="#E3F3FC"/>
<stop offset="0.28" stop-color="#3DB8C9"/>
<stop offset="0.36" stop-color="#36B1C5"/>
<stop offset="0.46" stop-color="#239EBA"/>
<stop offset="0.58" stop-color="#0480A9"/>
<stop offset="0.6" stop-color="#007CA7"/>
<stop offset="0.73" stop-color="#066690"/>
<stop offset="0.87" stop-color="#0F4D75"/>
</linearGradient>
<linearGradient id="paint26_linear_96_2063" x1="1719.77" y1="518.542" x2="1872.81" y2="358.9" gradientUnits="userSpaceOnUse">
<stop stop-color="#E3F3FC"/>
<stop offset="0.28" stop-color="#3DB8C9"/>
<stop offset="0.36" stop-color="#36B1C5"/>
<stop offset="0.46" stop-color="#239EBA"/>
<stop offset="0.58" stop-color="#0480A9"/>
<stop offset="0.6" stop-color="#007CA7"/>
<stop offset="0.73" stop-color="#066690"/>
<stop offset="0.87" stop-color="#0F4D75"/>
</linearGradient>
<linearGradient id="paint27_linear_96_2063" x1="1705.86" y1="505.219" x2="1858.9" y2="345.578" gradientUnits="userSpaceOnUse">
<stop stop-color="#E3F3FC"/>
<stop offset="0.28" stop-color="#3DB8C9"/>
<stop offset="0.36" stop-color="#36B1C5"/>
<stop offset="0.46" stop-color="#239EBA"/>
<stop offset="0.58" stop-color="#0480A9"/>
<stop offset="0.6" stop-color="#007CA7"/>
<stop offset="0.73" stop-color="#066690"/>
<stop offset="0.87" stop-color="#0F4D75"/>
</linearGradient>
<linearGradient id="paint28_linear_96_2063" x1="1692.56" y1="492.466" x2="1845.59" y2="332.824" gradientUnits="userSpaceOnUse">
<stop stop-color="#E3F3FC"/>
<stop offset="0.28" stop-color="#3DB8C9"/>
<stop offset="0.36" stop-color="#36B1C5"/>
<stop offset="0.46" stop-color="#239EBA"/>
<stop offset="0.58" stop-color="#0480A9"/>
<stop offset="0.6" stop-color="#007CA7"/>
<stop offset="0.73" stop-color="#066690"/>
<stop offset="0.87" stop-color="#0F4D75"/>
</linearGradient>
<linearGradient id="paint29_linear_96_2063" x1="1789.48" y1="585.334" x2="1942.53" y2="425.759" gradientUnits="userSpaceOnUse">
<stop stop-color="#E3F3FC"/>
<stop offset="0.28" stop-color="#3DB8C9"/>
<stop offset="0.36" stop-color="#36B1C5"/>
<stop offset="0.46" stop-color="#239EBA"/>
<stop offset="0.58" stop-color="#0480A9"/>
<stop offset="0.6" stop-color="#007CA7"/>
<stop offset="0.73" stop-color="#066690"/>
<stop offset="0.87" stop-color="#0F4D75"/>
</linearGradient>
<linearGradient id="paint30_linear_96_2063" x1="1775.57" y1="572.01" x2="1928.61" y2="412.37" gradientUnits="userSpaceOnUse">
<stop stop-color="#E3F3FC"/>
<stop offset="0.28" stop-color="#3DB8C9"/>
<stop offset="0.36" stop-color="#36B1C5"/>
<stop offset="0.46" stop-color="#239EBA"/>
<stop offset="0.58" stop-color="#0480A9"/>
<stop offset="0.6" stop-color="#007CA7"/>
<stop offset="0.73" stop-color="#066690"/>
<stop offset="0.87" stop-color="#0F4D75"/>
</linearGradient>
<linearGradient id="paint31_linear_96_2063" x1="1845.37" y1="638.986" x2="1998.41" y2="479.345" gradientUnits="userSpaceOnUse">
<stop stop-color="#E3F3FC"/>
<stop offset="0.28" stop-color="#3DB8C9"/>
<stop offset="0.36" stop-color="#36B1C5"/>
<stop offset="0.46" stop-color="#239EBA"/>
<stop offset="0.58" stop-color="#0480A9"/>
<stop offset="0.6" stop-color="#007CA7"/>
<stop offset="0.73" stop-color="#066690"/>
<stop offset="0.87" stop-color="#0F4D75"/>
</linearGradient>
<linearGradient id="paint32_linear_96_2063" x1="1831.29" y1="625.423" x2="1984.33" y2="465.782" gradientUnits="userSpaceOnUse">
<stop stop-color="#E3F3FC"/>
<stop offset="0.28" stop-color="#3DB8C9"/>
<stop offset="0.36" stop-color="#36B1C5"/>
<stop offset="0.46" stop-color="#239EBA"/>
<stop offset="0.58" stop-color="#0480A9"/>
<stop offset="0.6" stop-color="#007CA7"/>
<stop offset="0.73" stop-color="#066690"/>
<stop offset="0.87" stop-color="#0F4D75"/>
</linearGradient>
<linearGradient id="paint33_linear_96_2063" x1="1803.4" y1="598.72" x2="1956.44" y2="439.08" gradientUnits="userSpaceOnUse">
<stop stop-color="#E3F3FC"/>
<stop offset="0.28" stop-color="#3DB8C9"/>
<stop offset="0.36" stop-color="#36B1C5"/>
<stop offset="0.46" stop-color="#239EBA"/>
<stop offset="0.58" stop-color="#0480A9"/>
<stop offset="0.6" stop-color="#007CA7"/>
<stop offset="0.73" stop-color="#066690"/>
<stop offset="0.87" stop-color="#0F4D75"/>
</linearGradient>
<linearGradient id="paint34_linear_96_2063" x1="1817.38" y1="612.099" x2="1970.36" y2="452.466" gradientUnits="userSpaceOnUse">
<stop stop-color="#E3F3FC"/>
<stop offset="0.28" stop-color="#3DB8C9"/>
<stop offset="0.36" stop-color="#36B1C5"/>
<stop offset="0.46" stop-color="#239EBA"/>
<stop offset="0.58" stop-color="#0480A9"/>
<stop offset="0.6" stop-color="#007CA7"/>
<stop offset="0.73" stop-color="#066690"/>
<stop offset="0.87" stop-color="#0F4D75"/>
</linearGradient>
</defs>
</svg>
